<?xml version="1.0" encoding="UTF-8"?>
<svg width="44px" height="24px" viewBox="0 0 44 24" version="1.1" xmlns="http://www.w3.org/2000/svg" xmlns:xlink="http://www.w3.org/1999/xlink">
    <!-- Generator: Sketch 63.1 (92452) - https://sketch.com -->
    <title>logo-box</title>
    <desc>Created with Sketch.</desc>
    <g id="Page-1" stroke="none" stroke-width="1" fill="none" fill-rule="evenodd">
        <g id="Layout-fixed" transform="translate(-456.000000, -2354.000000)" fill="#A4ADB3" fill-rule="nonzero">
            <g id="section--logos" transform="translate(260.000000, 2351.000000)">
                <g id="logo-box" transform="translate(196.000000, 3.000000)">
                    <path d="M42.9028143,20.9454545 C43.443152,21.7090909 43.3350844,22.6909091 42.6866792,23.2363636 C41.9302064,23.7818182 40.849531,23.6727273 40.3091932,23.0181818 L36.5268293,18.1090909 L32.8525328,22.9090909 C32.3121951,23.6727273 31.2315197,23.6727273 30.4750469,23.1272727 C29.7185741,22.5818182 29.6105066,21.6 30.1508443,20.8363636 L34.473546,15.1636364 L30.1508443,9.49090909 C29.6105066,8.72727273 29.8266417,7.63636364 30.4750469,7.09090909 C31.2315197,6.54545455 32.3121951,6.76363636 32.8525328,7.41818182 L36.5268293,12.3272727 L40.3091932,7.63636364 C40.849531,6.87272727 41.8221388,6.76363636 42.6866792,7.30909091 C43.443152,7.85454545 43.443152,8.94545455 42.9028143,9.70909091 L38.6881801,15.2727273 L42.9028143,20.9454545 L42.9028143,20.9454545 Z M23.2345216,20.2909091 C20.4247655,20.2909091 18.1553471,18.1090909 18.1553471,15.2727273 C18.1553471,12.5454545 20.4247655,10.2545455 23.2345216,10.2545455 C26.0442777,10.2545455 28.3136961,12.5454545 28.3136961,15.2727273 C28.2056285,18.1090909 25.9362101,20.2909091 23.2345216,20.2909091 Z M8.32120075,20.2909091 C5.51144465,20.2909091 3.24202627,18.1090909 3.24202627,15.2727273 C3.24202627,12.5454545 5.51144465,10.2545455 8.32120075,10.2545455 C11.1309568,10.2545455 13.4003752,12.5454545 13.4003752,15.2727273 C13.4003752,18.1090909 11.1309568,20.2909091 8.32120075,20.2909091 Z M23.2345216,6.98181818 C20.1005629,6.98181818 17.2908068,8.72727273 15.8859287,11.3454545 C14.4810507,8.72727273 11.6712946,6.98181818 8.42926829,6.98181818 C6.48405253,6.98181818 4.75497186,7.63636364 3.35009381,8.61818182 L3.35009381,1.63636364 C3.35009381,0.763636364 2.59362101,0 1.72908068,0 C0.756472795,0 0,0.763636364 0,1.63636364 L0,15.3818182 C0.108067542,19.9636364 3.78236398,23.5636364 8.32120075,23.5636364 C11.563227,23.5636364 14.3729831,21.7090909 15.7778612,19.0909091 C17.1827392,21.7090909 19.9924953,23.5636364 23.126454,23.5636364 C27.7733583,23.5636364 31.5557223,19.8545455 31.5557223,15.1636364 C31.6637899,10.6909091 27.8814259,6.98181818 23.2345216,6.98181818 Z" id="Shape"></path>
                </g>
            </g>
        </g>
    </g>
</svg>