<?xml version="1.0" encoding="UTF-8"?>
<svg width="92px" height="18px" viewBox="0 0 92 18" version="1.1" xmlns="http://www.w3.org/2000/svg" xmlns:xlink="http://www.w3.org/1999/xlink">
    <!-- Generator: Sketch 63.1 (92452) - https://sketch.com -->
    <title>logo-kayak</title>
    <desc>Created with Sketch.</desc>
    <g id="Page-1" stroke="none" stroke-width="1" fill="none" fill-rule="evenodd">
        <g id="Layout-fixed" transform="translate(-260.000000, -2357.000000)" fill-rule="nonzero">
            <g id="section--logos" transform="translate(260.000000, 2351.000000)">
                <g id="logo-kayak" transform="translate(0.000000, 6.000000)">
                    <path d="M17.6049383,-5.68434189e-14 L17.6049383,17.664 L-1.26476607e-12,17.664 L-1.26476607e-12,-5.68434189e-14 L17.6049383,-5.68434189e-14 Z M36.1879302,-5.68434189e-14 L36.1879302,17.664 L18.582992,17.664 L18.582992,-5.68434189e-14 L36.1879302,-5.68434189e-14 Z M54.7635722,-5.68434189e-14 L54.7635722,17.664 L37.1586268,17.664 L37.1586268,-5.68434189e-14 L54.7635722,-5.68434189e-14 Z M73.3465116,-5.68434189e-14 L73.3465116,17.664 L55.7416131,17.664 L55.7416131,-5.68434189e-14 L73.3465116,-5.68434189e-14 Z M91.9222202,-5.68434189e-14 L91.9222202,17.664 L74.317282,17.664 L74.317282,-5.68434189e-14 L91.9222202,-5.68434189e-14 Z" id="Combined-Shape" fill="#A4ADB3"></path>
                    <polygon id="path1699" fill="#FFFFFF" points="5.42708554 4.41968978 7.56703223 4.41968978 7.56703223 13.2516956 5.42708554 13.2516956"></polygon>
                    <polygon id="path1701" fill="#FFFFFF" points="12.1778559 13.2443044 9.81728848 13.2443044 7.38318812 8.832 9.81728848 4.41968978 12.1778559 4.41968978 9.72904359 8.832"></polygon>
                    <path d="M25.7896885,11.9752138 L25.4072907,13.2590686 L23.1276188,13.2590686 L26.0250168,4.40493222 L28.7459069,4.40493222 L31.6212348,13.2590686 L29.2900883,13.2590686 L28.9076891,11.9899733 L25.7896885,11.9752138 Z M27.3486923,6.94311782 L26.3191655,10.2412822 L28.3782206,10.2412822 L27.3486923,6.94311782 Z" id="path1706" fill="#FFFFFF"></path>
                    <polygon id="path1711" fill="#FFFFFF" points="47.0641617 13.2590686 44.9095019 13.2590686 44.9095019 9.35587193 42.0194709 4.40493222 44.56388 4.40493222 45.990509 7.12020014 47.3950835 4.40493222 49.9027209 4.40493222 47.0641617 9.35587193"></polygon>
                    <path d="M62.948301,11.9752138 L62.5659005,13.2590686 L60.2862626,13.2590686 L63.183645,4.40493222 L65.9045393,4.40493222 L68.7798886,13.2590686 L66.4487009,13.2590686 L66.0663344,11.9899733 L62.948301,11.9752138 Z M64.5073106,6.94311782 L63.4777795,10.2412822 L65.5368517,10.2412822 L64.5073106,6.94311782 Z" id="path2268" fill="#FFFFFF"></path>
                    <polygon id="path2276" fill="#FFFFFF" points="79.7443648 4.41968978 81.8842266 4.41968978 81.8842266 13.2516956 79.7443648 13.2516956"></polygon>
                    <polygon id="path2278" fill="#FFFFFF" points="86.495092 13.2443044 84.1345537 13.2443044 81.7004367 8.832 84.1345537 4.41968978 86.495092 4.41968978 84.0463033 8.832"></polygon>
                </g>
            </g>
        </g>
    </g>
</svg>