<?xml version="1.0" encoding="UTF-8"?>
<svg width="120px" height="14px" viewBox="0 0 120 14" version="1.1" xmlns="http://www.w3.org/2000/svg" xmlns:xlink="http://www.w3.org/1999/xlink">
    <!-- Generator: Sketch 63.1 (92452) - https://sketch.com -->
    <title>logo-1800</title>
    <desc>Created with Sketch.</desc>
    <g id="Page-1" stroke="none" stroke-width="1" fill="none" fill-rule="evenodd">
        <g id="Layout-fixed" transform="translate(-1060.000000, -2358.000000)" fill="#A4ADB3" fill-rule="nonzero">
            <g id="section--logos" transform="translate(260.000000, 2351.000000)">
                <g id="logo-1800" transform="translate(800.000000, 7.000000)">
                    <polygon id="Path" points="3.48953975 3.1067572 0.225941423 4.28431839 0.225941423 5.68737003 1.93305439 5.08606219 1.93305439 12.1764839 0.225941423 12.1764839 0.225941423 13.554481 5.19665272 13.554481 5.19665272 12.1764839 3.48953975 12.1764839"></polygon>
                    <path d="M14.8117155,6.26362338 C15.8158996,5.68737003 16.3682008,4.68519029 16.3682008,3.50762909 C16.3682008,1.72876005 14.7866109,0.225490442 12.9288703,0.225490442 C10.8451883,0.225490442 9.26359833,1.70370556 9.26359833,3.63290156 C9.26359833,4.81046276 9.86610879,5.787588 10.8953975,6.33878686 C9.48953975,6.94009471 8.58577406,8.29303736 8.58577406,9.82136146 C8.58577406,12.0512114 10.4686192,13.8050259 12.8786611,13.8050259 C15.2384937,13.8050259 17.1715481,11.9760479 17.1715481,9.69608899 C17.1715481,8.24292837 16.2175732,6.86493123 14.8117155,6.26362338 Z M10.7447699,3.65795605 C10.7447699,2.53050385 11.6736402,1.60348759 12.8284519,1.60348759 C13.9832636,1.60348759 14.9121339,2.53050385 14.9121339,3.68301055 C14.9121339,4.81046276 13.9832636,5.73747902 12.8033473,5.73747902 C11.6736402,5.73747902 10.7447699,4.78540826 10.7447699,3.65795605 Z M12.8535565,12.4019743 C11.3221757,12.4019743 10.1422594,11.2244131 10.1422594,9.74619798 C10.1422594,8.31809185 11.3723849,7.11547616 12.8284519,7.11547616 C14.334728,7.11547616 15.539749,8.29303736 15.539749,9.74619798 C15.539749,11.2244131 14.334728,12.4019743 12.8535565,12.4019743 Z" id="Shape"></path>
                    <path d="M23.0962343,2.83115777 C21.8158996,2.83115777 20.5355649,3.38235663 19.6317992,4.35948187 C18.7782427,5.23638915 18.4267782,6.21351439 18.4267782,7.64162052 L18.4267782,8.99456317 C18.4267782,10.4727783 18.8535565,11.5501215 19.8075314,12.4520833 C20.7112971,13.3289906 21.8912134,13.8050259 23.1213389,13.8050259 C24.4267782,13.8050259 25.6820084,13.2538271 26.6108787,12.3017563 C27.4393305,11.424849 27.790795,10.4226693 27.790795,8.99456317 L27.790795,7.64162052 C27.790795,6.13835091 27.3891213,5.08606219 26.4100418,4.18410042 C25.5313808,3.33224764 24.3263598,2.83115777 23.0962343,2.83115777 Z M26.209205,8.99456317 C26.209205,9.82136146 26.1087866,10.4727783 25.6569038,11.1241951 C25.1046025,11.9008844 24.125523,12.3769198 23.1213389,12.3769198 C22.1422594,12.3769198 21.2133891,11.9259389 20.6610879,11.1743041 C20.1338912,10.5228873 20.0334728,9.82136146 20.0334728,8.99456317 L20.0334728,7.66667502 C20.0334728,6.86493123 20.1338912,6.21351439 20.6108787,5.56209756 C21.1631799,4.78540826 22.1422594,4.30937289 23.1213389,4.30937289 C24.125523,4.30937289 25.0543933,4.76035377 25.6066946,5.51198858 C26.1087866,6.16340541 26.209205,6.81482224 26.209205,7.69172951 L26.209205,8.99456317 L26.209205,8.99456317 Z" id="Shape"></path>
                    <path d="M33.665272,2.83115777 C32.3598326,2.83115777 31.1046025,3.38235663 30.2008368,4.35948187 C29.3472803,5.23638915 28.9958159,6.21351439 28.9958159,7.64162052 L28.9958159,8.99456317 C28.9958159,10.4727783 29.4225941,11.5501215 30.376569,12.4520833 C31.2803347,13.3289906 32.460251,13.8050259 33.6903766,13.8050259 C34.9958159,13.8050259 36.251046,13.2538271 37.1799163,12.3017563 C38.0083682,11.424849 38.3598326,10.4226693 38.3598326,8.99456317 L38.3598326,7.64162052 C38.3598326,6.13835091 37.958159,5.08606219 36.9790795,4.18410042 C36.1004184,3.33224764 34.8953975,2.83115777 33.665272,2.83115777 Z M36.7782427,8.99456317 C36.7782427,9.82136146 36.6778243,10.4727783 36.2259414,11.1241951 C35.6736402,11.9008844 34.6945607,12.3769198 33.6903766,12.3769198 C32.7112971,12.3769198 31.7824268,11.9259389 31.2301255,11.1743041 C30.7029289,10.5228873 30.6025105,9.82136146 30.6025105,8.99456317 L30.6025105,7.66667502 C30.6025105,6.86493123 30.7029289,6.21351439 31.1799163,5.56209756 C31.7322176,4.78540826 32.7112971,4.30937289 33.7154812,4.30937289 C34.7196653,4.30937289 35.6485356,4.76035377 36.2008368,5.51198858 C36.7029289,6.16340541 36.8033473,6.81482224 36.8033473,7.69172951 L36.8033473,8.99456317 L36.7782427,8.99456317 Z" id="Shape"></path>
                    <path d="M50.083682,10.4477238 C49.5564854,11.6002305 48.3012552,12.3518653 46.9456067,12.3518653 C44.8619247,12.3518653 43.2301255,10.7984867 43.2301255,8.81918172 C43.2301255,6.78976774 44.8117155,5.21133465 46.8451883,5.21133465 C48.125523,5.21133465 49.3305439,5.88780598 50.0083682,6.94009471 L50.0585774,7.01525819 L51.4142259,7.01525819 L51.4142259,3.93355548 L50.0083682,3.93355548 L50.0083682,5.06100769 C49.1297071,4.20915491 48.0251046,3.78322852 46.7949791,3.78322852 C45.4393305,3.78322852 44.209205,4.30937289 43.2050209,5.31155263 C42.2761506,6.23856889 41.7740586,7.51634806 41.7740586,8.84423621 C41.7740586,11.5501215 44.1087866,13.8050259 46.8702929,13.8050259 C49.0794979,13.8050259 51.0125523,12.5021923 51.7405858,10.5479418 L51.8158996,10.3725603 L50.1841004,10.3725603 L50.083682,10.4477238 Z" id="Path"></path>
                    <path d="M57.5899582,3.75817403 C54.7280335,3.75817403 52.41841,6.01307845 52.41841,8.79412723 C52.41841,11.5501215 54.7280335,13.8050259 57.5648536,13.8050259 C60.4016736,13.8050259 62.7112971,11.525067 62.7112971,8.71896375 C62.7112971,5.98802395 60.4267782,3.75817403 57.5899582,3.75817403 Z M57.5648536,12.3769198 C55.5564854,12.3769198 53.8995816,10.7483777 53.8995816,8.76907273 C53.8995816,6.78976774 55.5564854,5.18628016 57.5899582,5.18628016 C59.5983264,5.18628016 61.2301255,6.78976774 61.2301255,8.76907273 C61.2301255,10.7734322 59.5732218,12.3769198 57.5648536,12.3769198 Z" id="Shape"></path>
                    <path d="M73.0041841,8.1427104 C73.0041841,6.88998572 72.6527197,6.03813294 72.4518828,5.63726104 C71.8493724,4.40959086 70.2426778,3.75817403 69.0376569,3.75817403 C67.7824268,3.75817403 66.6527197,4.30937289 65.9748954,5.21133465 L65.9748954,3.90850099 L62.8870293,3.90850099 L62.8870293,5.28649813 L64.4937238,5.28649813 L64.4937238,12.1514294 L62.8870293,12.1514294 L62.8870293,13.5294265 L67.58159,13.5294265 L67.58159,12.1514294 L65.9748954,12.1514294 L65.9748954,8.39325533 C65.9748954,7.61656603 65.9748954,6.78976774 66.5774059,6.08824193 C67.0794979,5.51198858 67.9079498,5.16122567 68.7112971,5.16122567 C69.2384937,5.16122567 70.5188285,5.26144364 71.0711297,6.23856889 C71.4728033,6.91504021 71.4979079,7.64162052 71.4979079,8.54358229 L71.4979079,12.1514294 L69.8912134,12.1514294 L69.8912134,13.5294265 L74.5857741,13.5294265 L74.5857741,12.1514294 L72.9790795,12.1514294 L72.9790795,8.1427104 L73.0041841,8.1427104 Z" id="Path"></path>
                    <path d="M77.1464435,9.64598001 L77.1464435,5.31155263 L79.2552301,5.31155263 L79.2552301,3.93355548 L77.1464435,3.93355548 L77.1464435,0.551198858 L75.665272,0.551198858 L75.665272,3.93355548 L73.832636,3.93355548 L73.832636,5.31155263 L75.665272,5.31155263 L75.665272,9.92157944 C75.665272,12.5272468 76.6694561,13.8050259 78.7280335,13.8050259 L79.4058577,13.8050259 L79.4058577,12.4019743 L78.7280335,12.4019743 C77.1464435,12.3769198 77.1464435,10.9989227 77.1464435,9.64598001 Z" id="Path"></path>
                    <path d="M88.6694561,5.66231554 C87.7656904,4.40959086 86.4853556,3.78322852 84.9037657,3.78322852 C83.1213389,3.78322852 81.4393305,4.68519029 80.6610879,6.06318743 L80.6359833,6.11329642 C80.2343096,6.78976774 79.8577406,7.44118458 79.8577406,8.79412723 C79.832636,9.77125247 80.1087866,10.6982687 80.6359833,11.5501215 C81.4895397,12.9531732 83.1464435,13.8050259 84.9288703,13.8050259 C86.460251,13.8050259 87.8158996,13.1285546 88.6945607,11.9509934 L88.6945607,13.554481 L91.4560669,13.554481 L91.4560669,12.1764839 L90.1757322,12.1764839 L90.1757322,5.31155263 L91.4560669,5.31155263 L91.4560669,3.93355548 L88.6945607,3.93355548 L88.6945607,5.66231554 L88.6694561,5.66231554 Z M84.9539749,12.4019743 C82.9707113,12.4019743 81.2887029,10.7483777 81.2887029,8.81918172 C81.2887029,6.83987673 82.9456067,5.21133465 85.0041841,5.21133465 C87.0125523,5.21133465 88.6694561,6.81482224 88.6694561,8.79412723 C88.6945607,10.7984867 87.0627615,12.4019743 84.9539749,12.4019743 Z" id="Shape"></path>
                    <path d="M100.066946,10.4477238 C99.539749,11.6002305 98.2845188,12.3518653 96.9288703,12.3518653 C94.8451883,12.3518653 93.2133891,10.7984867 93.2133891,8.81918172 C93.2133891,6.78976774 94.7949791,5.21133465 96.8284519,5.21133465 C98.1087866,5.21133465 99.3138075,5.88780598 99.9916318,6.94009471 L100.041841,7.01525819 L101.39749,7.01525819 L101.39749,3.93355548 L99.9916318,3.93355548 L99.9916318,5.06100769 C99.1129707,4.20915491 98.0334728,3.78322852 96.7782427,3.78322852 C95.4225941,3.78322852 94.1924686,4.30937289 93.1882845,5.31155263 C92.2594142,6.23856889 91.7573222,7.51634806 91.7573222,8.84423621 C91.7573222,11.5501215 94.0920502,13.8050259 96.8535565,13.8050259 C99.0627615,13.8050259 100.995816,12.5021923 101.723849,10.5479418 L101.799163,10.3725603 L100.167364,10.3725603 L100.066946,10.4477238 Z" id="Path"></path>
                    <path d="M105.690377,9.64598001 L105.690377,5.31155263 L107.799163,5.31155263 L107.799163,3.93355548 L105.690377,3.93355548 L105.690377,0.551198858 L104.209205,0.551198858 L104.209205,3.93355548 L102.376569,3.93355548 L102.376569,5.31155263 L104.209205,5.31155263 L104.209205,9.92157944 C104.209205,12.5272468 105.213389,13.8050259 107.271967,13.8050259 L107.949791,13.8050259 L107.949791,12.4019743 L107.271967,12.4019743 C105.690377,12.3769198 105.690377,10.9989227 105.690377,9.64598001 Z" id="Path"></path>
                    <path d="M114.803347,8.69390925 C114.100418,8.29303736 113.297071,8.1176559 112.594142,7.99238343 C111.539749,7.76689299 110.585774,7.49129356 110.585774,6.46405933 C110.585774,5.51198858 111.464435,5.0108987 112.317992,5.0108987 C112.769874,5.0108987 113.221757,5.16122567 113.573222,5.4117706 C113.924686,5.66231554 114.125523,6.03813294 114.125523,6.43900484 L114.125523,6.5642773 L115.380753,6.5642773 L115.380753,3.93355548 L114.125523,3.93355548 L114.125523,4.53486333 C113.648536,4.03377346 112.970711,3.75817403 112.09205,3.75817403 C111.263598,3.75817403 110.083682,4.03377346 109.456067,4.83551725 C109.079498,5.31155263 108.92887,5.8126425 108.92887,6.51416832 C108.92887,7.3660211 109.355649,8.1427104 110.133891,8.61874577 C110.761506,8.99456317 111.48954,9.14489014 112.192469,9.2952171 L112.343096,9.32027159 C113.372385,9.52070754 114.426778,9.74619798 114.426778,10.9237592 C114.426778,11.9509934 113.447699,12.5773557 112.493724,12.5773557 C111.263598,12.5773557 110.309623,11.8006664 110.1841,10.7233232 L110.1841,10.5980508 L108.92887,10.5980508 L108.92887,13.554481 L110.1841,13.554481 L110.1841,12.7276827 C110.761506,13.4292085 111.615063,13.8050259 112.694561,13.8050259 C113.949791,13.8050259 115.154812,13.2037181 115.606695,12.3518653 C115.832636,11.9509934 116.033473,11.474958 116.033473,10.8485957 C116.058577,9.94663393 115.606695,9.14489014 114.803347,8.69390925 Z" id="Path"></path>
                    <path d="M118.619247,2.88126676 C118.619247,2.63072182 118.41841,2.50544935 118.016736,2.50544935 L117.464435,2.50544935 L117.464435,3.93355548 L117.76569,3.93355548 L117.76569,3.33224764 L117.991632,3.33224764 L118.267782,3.93355548 L118.619247,3.93355548 L118.292887,3.28213865 C118.518828,3.20697517 118.619247,3.0817027 118.619247,2.88126676 Z M117.966527,3.13181169 L117.76569,3.13181169 L117.76569,2.68083081 L117.966527,2.68083081 C118.192469,2.68083081 118.317992,2.75599429 118.317992,2.90632125 C118.317992,3.05664821 118.192469,3.13181169 117.966527,3.13181169 Z" id="Shape"></path>
                    <path d="M118.895397,2.3300679 C118.644351,2.07952296 118.317992,1.95425049 117.966527,1.95425049 C117.615063,1.95425049 117.313808,2.07952296 117.062762,2.3050134 C116.811715,2.55555834 116.686192,2.88126676 116.686192,3.20697517 C116.686192,3.53268359 116.811715,3.858392 117.062762,4.08388244 C117.313808,4.33442738 117.640167,4.45969985 117.966527,4.45969985 C118.292887,4.45969985 118.619247,4.33442738 118.870293,4.08388244 C119.121339,3.858392 119.246862,3.53268359 119.246862,3.18192068 C119.271967,2.88126676 119.146444,2.58061283 118.895397,2.3300679 Z M118.769874,3.98366447 C118.543933,4.18410042 118.267782,4.30937289 117.966527,4.30937289 C117.690377,4.30937289 117.414226,4.18410042 117.213389,3.98366447 C117.012552,3.78322852 116.887029,3.50762909 116.887029,3.23202966 C116.887029,2.95643024 117.012552,2.68083081 117.213389,2.45534037 C117.414226,2.25490442 117.690377,2.15468644 117.991632,2.15468644 C118.292887,2.15468644 118.569038,2.25490442 118.769874,2.48039486 C118.970711,2.68083081 119.07113,2.95643024 119.07113,3.25708416 C119.096234,3.50762909 118.970711,3.78322852 118.769874,3.98366447 Z" id="Shape"></path>
                </g>
            </g>
        </g>
    </g>
</svg>