<?xml version="1.0" encoding="UTF-8"?>
<svg width="86px" height="26px" viewBox="0 0 86 26" version="1.1" xmlns="http://www.w3.org/2000/svg" xmlns:xlink="http://www.w3.org/1999/xlink">
    <!-- Generator: Sketch 63.1 (92452) - https://sketch.com -->
    <title>logo-logdna</title>
    <desc>Created with Sketch.</desc>
    <g id="Page-1" stroke="none" stroke-width="1" fill="none" fill-rule="evenodd">
        <g id="Layout-fixed" transform="translate(-917.000000, -2353.000000)" fill="#A4ADB3" fill-rule="nonzero">
            <g id="section--logos" transform="translate(260.000000, 2351.000000)">
                <g id="logo-logdna" transform="translate(657.000000, 2.000000)">
                    <g id="Group" transform="translate(43.000000, 12.610119) scale(-1, 1) rotate(-180.000000) translate(-43.000000, -12.610119) translate(0.000000, 0.110119)">
                        <path d="M9.8078277,24.046131 C9.28155402,23.8139881 0.813332053,18.8422619 0.593253968,18.6294643 C0.468862007,18.5230655 0.277489759,18.2619048 0.181803635,18.0684524 C0.00956861239,17.7299107 0,17.4203869 0,12.0907738 C0,6.76116071 0.00956861239,6.4516369 0.181803635,6.11309524 C0.277489759,5.91964286 0.468862007,5.65848214 0.593253968,5.55208333 C0.832469278,5.3296131 9.31982847,0.348214286 9.82696493,0.135416667 C10.2766897,-0.0580357143 11.0326101,-0.0290178571 11.5110407,0.193452381 C11.7311188,0.29985119 13.874488,1.53794643 16.2666411,2.93080357 C20.0653802,5.15550595 20.6586342,5.5327381 20.9074181,5.890625 L21.1944764,6.30654762 L21.1944764,12.0907738 L21.1944764,17.875 L20.9074181,18.2909226 C20.6586342,18.6488095 20.0653802,19.0260417 16.2666411,21.250744 C13.874488,22.6436012 11.7311188,23.8816964 11.5110407,23.9880952 C11.0421787,24.2105655 10.2384153,24.2395833 9.8078277,24.046131 Z M12.4679019,20.999256 C13.5013121,20.3995536 13.6831157,20.2544643 13.6831157,20.0513393 L13.6831157,19.8191964 L11.6545699,19.8772321 C8.46822197,19.9642857 7.67402714,20.0223214 7.61661546,20.1674107 C7.58790963,20.2544643 7.91324245,20.5059524 8.5734767,20.8928571 C9.9609255,21.7150298 10.1044547,21.7730655 10.7168459,21.734375 C11.1761393,21.7053571 11.4153546,21.608631 12.4679019,20.999256 Z M6.50665643,17.9910714 C7.00422427,15.2150298 7.93237967,13.125744 9.09018177,12.1971726 L9.56861239,11.8199405 L9.13802483,11.6071429 C8.90837814,11.4910714 8.47779058,11.1428571 8.18116359,10.8236607 C7.22430236,9.76934524 6.57363671,8.01860119 6.30571557,5.79389881 C6.23873528,5.24255952 6.17175499,4.76860119 6.16218638,4.74925595 C6.11434332,4.69122024 3.03325013,6.50967262 2.70791731,6.79985119 C2.02854583,7.39955357 2.05725166,7.20610119 2.05725166,12.0907738 C2.05725166,16.9174107 2.03811444,16.7529762 2.65050563,17.3333333 C2.79403482,17.4784226 3.65520993,18.0200893 4.54509089,18.5520833 C5.85599078,19.3162202 6.1813236,19.4709821 6.22916667,19.3549107 C6.26744112,19.2678571 6.39183308,18.6584821 6.50665643,17.9910714 Z M16.7259345,18.5133929 C18.4961278,17.4784226 18.6875,17.3333333 18.9554211,16.8110119 C19.1276562,16.4724702 19.1372248,16.1822917 19.1372248,12.0907738 C19.1372248,7.99925595 19.1276562,7.70907738 18.9554211,7.37053571 C18.6875,6.84821429 18.4961278,6.703125 16.6493856,5.61979167 L14.9748784,4.64285714 L14.8983295,5.10714286 C14.2859383,8.734375 13.4917435,10.8526786 12.2860983,12.0520833 L11.6928443,12.6421131 L12.0277458,12.7581845 C12.2095494,12.8258929 12.5922939,13.1160714 12.8697837,13.40625 C13.8840566,14.421875 14.5729967,16.0952381 14.8887609,18.2619048 C14.9748784,18.9099702 15.0705645,19.4419643 15.0992704,19.4419643 C15.1184076,19.4419643 15.8551907,19.0260417 16.7259345,18.5133929 Z M13.5491551,18.5037202 C13.4343318,17.4300595 13.5108807,17.4977679 12.5061764,17.5558036 C12.0181772,17.5848214 10.8221006,17.6331845 9.82696493,17.6622024 C8.09504608,17.7202381 8.03763441,17.7299107 7.98979135,17.9330357 C7.76971326,18.9099702 7.76971326,18.9583333 7.93237967,18.968006 C8.14288914,18.9873512 11.8076677,19.1130952 12.812372,19.1324405 L13.6065668,19.1517857 L13.5491551,18.5037202 Z M13.2525282,16.4241071 C13.2142537,16.1919643 13.1472734,15.84375 13.0994304,15.640625 L13.0037442,15.2730655 L11.3100998,15.3311012 C10.3819444,15.360119 9.39637737,15.4084821 9.12845622,15.4375 L8.64045699,15.4858631 L8.48735919,15.9985119 C8.39167307,16.2790179 8.32469278,16.5595238 8.32469278,16.6175595 C8.32469278,16.6949405 8.78398618,16.733631 9.83653354,16.7626488 C10.6594342,16.7723214 11.7885305,16.8013393 12.3243728,16.8110119 L13.3195084,16.8303571 L13.2525282,16.4241071 Z M12.7740975,14.3928571 C12.6209997,13.889881 12.171275,13.203125 11.8459421,12.9516369 L11.4823349,12.6904762 L10.8986495,12.9129464 C10.2001408,13.1644345 9.77912186,13.4933036 9.37724014,14.0736607 L9.08061316,14.499256 L10.4010817,14.5379464 C11.1282962,14.547619 11.9703341,14.5766369 12.2765297,14.5863095 C12.812372,14.6056548 12.8315092,14.5959821 12.7740975,14.3928571 Z M10.3341014,11.5491071 C10.8699437,11.375 11.4727663,10.891369 11.750256,10.4077381 L11.9416283,10.078869 L10.5924539,10.0111607 C9.84610215,9.97247024 9.05190732,9.96279762 8.83182924,9.98214286 L8.4203789,10.0111607 L8.6500256,10.4947917 C8.87010369,10.96875 9.23371096,11.375 9.61645545,11.5877976 C9.85567076,11.7232143 9.78869048,11.7328869 10.3341014,11.5491071 Z M10.5446109,9.13095238 L12.4296275,9.07291667 L12.640137,8.44419643 C12.7453917,8.10565476 12.8219406,7.79613095 12.7932348,7.77678571 C12.7262545,7.70907738 8.0280658,7.515625 7.97065412,7.58333333 C7.92281106,7.63169643 8.08547747,8.76339286 8.19073221,9.12127976 C8.22900666,9.22767857 8.30555556,9.27604167 8.44908474,9.23735119 C8.56390809,9.21800595 9.51120072,9.16964286 10.5446109,9.13095238 Z M10.8029634,6.77083333 C12.0373144,6.71279762 13.0611559,6.6547619 13.0898618,6.63541667 C13.108999,6.60639881 13.1855479,6.32589286 13.2525282,6.01636905 L13.3673515,5.4360119 L11.5875896,5.37797619 C10.6115911,5.34895833 9.31982847,5.30059524 8.71700589,5.27157738 L7.63575269,5.21354167 L7.70273297,5.96800595 C7.74100742,6.38392857 7.78885049,6.7514881 7.81755632,6.79985119 C7.86539939,6.88690476 8.06634025,6.88690476 10.8029634,6.77083333 Z M13.3769201,4.34300595 C13.5108807,4.29464286 13.5874296,4.17857143 13.5874296,4.04315476 C13.577861,3.859375 13.3673515,3.69494048 12.4104903,3.14360119 C11.2909626,2.49553571 11.2144137,2.46651786 10.6115911,2.46651786 C10.0087686,2.46651786 9.94178827,2.49553571 8.79355479,3.16294643 C7.63575269,3.83035714 7.60704685,3.859375 7.57834101,4.20758929 L7.54963518,4.56547619 L10.3532386,4.49776786 C11.8937852,4.45907738 13.2525282,4.39136905 13.3769201,4.34300595 Z" id="Shape"></path>
                        <path d="M24.6104711,14.5379464 L24.6391769,8.27008929 L24.9070981,7.72842262 C25.2994112,6.91592262 26.0074885,6.48065476 26.9547811,6.48065476 L27.3662314,6.48065476 L27.3662314,6.96428571 L27.3662314,7.44791667 L26.9643497,7.50595238 C26.4572133,7.59300595 25.9883513,8.02827381 25.8448221,8.56026786 C25.7778418,8.82142857 25.7395673,10.8720238 25.7395673,14.8764881 L25.7395673,20.796131 L25.1654506,20.796131 L24.5817652,20.796131 L24.6104711,14.5379464 Z" id="Path"></path>
                        <path d="M59.6124552,18.8035714 L59.6124552,16.8110119 L59.3541027,16.8690476 C59.2010049,16.8980655 58.7704173,16.9657738 58.3972414,17.0238095 C56.2155978,17.3526786 54.0817972,16.1822917 53.0866615,14.1220238 C52.6656426,13.2418155 52.531682,12.6227679 52.531682,11.578125 C52.531682,10.0982143 52.9718382,8.9858631 53.9861111,7.88318452 C55.1343446,6.64508929 56.3495584,6.21949405 58.5120648,6.32589286 C59.7942588,6.38392857 60.2822581,6.46130952 61.3156682,6.73214286 L61.9089222,6.89657738 L61.9089222,13.8415179 L61.9089222,20.796131 L60.7606887,20.796131 L59.6124552,20.796131 L59.6124552,18.8035714 Z M58.5694764,14.9925595 C58.8565348,14.9345238 59.2010049,14.8474702 59.3541027,14.7894345 L59.6124552,14.6830357 L59.6124552,11.5587798 L59.6124552,8.44419643 L59.1148874,8.3764881 C57.4499488,8.18303571 56.3878328,8.44419643 55.6988927,9.23735119 C54.4549731,10.6785714 54.5219534,12.9322917 55.8424219,14.1123512 C56.4739503,14.6733631 56.9715182,14.8958333 57.9953597,15.0796131 C58.0336342,15.0892857 58.2919867,15.0409226 58.5694764,14.9925595 Z" id="Shape"></path>
                        <path d="M33.5858295,17.0044643 C32.2366551,16.8690476 31.03101,16.1339286 30.1698349,14.9151786 C29.5670123,14.0543155 29.2895225,13.3578869 29.203405,12.390625 C29.0694444,10.9010417 29.3182284,9.65327381 29.968894,8.64732143 C31.1075589,6.89657738 32.906458,6.03571429 34.8775922,6.28720238 C36.1119432,6.44196429 36.9252752,6.86755952 37.7768817,7.77678571 C38.8964094,8.96651786 39.2791539,9.97247024 39.2695853,11.703869 C39.2600166,13.3772321 38.905978,14.2767857 37.7864503,15.514881 C36.7243344,16.6852679 35.3081797,17.188244 33.5858295,17.0044643 Z M35.8057476,15.6019345 C38.3318612,14.3928571 38.9729583,10.7462798 37.0496672,8.58928571 C35.5378264,6.88690476 33.1456733,6.82886905 31.5477151,8.45386905 C30.6578341,9.35342262 30.3229327,10.2433036 30.3229327,11.6941964 C30.3325013,13 30.7056772,13.9962798 31.499872,14.7991071 C32.3323413,15.640625 33.1648105,15.969494 34.3513185,15.9308036 C35.0402586,15.9114583 35.2603367,15.8630952 35.8057476,15.6019345 Z" id="Shape"></path>
                        <path d="M67.6692268,17.0238095 C66.7315028,16.9270833 65.9755824,16.781994 65.2866423,16.5595238 L64.7795059,16.4047619 L64.7795059,11.4427083 L64.7795059,6.48065476 L65.9277394,6.48065476 L67.0759729,6.48065476 L67.0759729,10.6302083 L67.0759729,14.7797619 L67.5831093,14.905506 C68.3103239,15.0989583 69.6020865,15.0796131 70.2049091,14.8668155 C70.8268689,14.6443452 71.4966718,14.0543155 71.7263185,13.5223214 C71.8794163,13.1547619 71.9081221,12.7388393 71.936828,9.7983631 L71.9751024,6.48065476 L73.0659242,6.48065476 L74.156746,6.48065476 L74.156746,9.89508929 C74.156746,12.671131 74.1280402,13.4159226 74.0036482,13.8802083 C73.6209037,15.4084821 72.4726703,16.5014881 70.8938492,16.8690476 C70.0900858,17.0625 68.6643625,17.1302083 67.6692268,17.0238095 Z" id="Path"></path>
                        <path d="M79.8979135,17.0625 C78.8549347,16.8690476 77.4387801,16.2693452 77.0751728,15.8630952 C76.9316436,15.6986607 76.9412122,15.6502976 77.3622312,15.0119048 L77.811956,14.3348214 L78.4913274,14.6540179 C79.6586982,15.1860119 80.6729711,15.3214286 81.5915579,15.0409226 C82.1465374,14.8764881 82.7110855,14.3541667 82.8546147,13.8802083 C82.9885753,13.4255952 83.0651242,12.9419643 82.9790067,12.9806548 C82.328341,13.328869 82.0699885,13.3869048 81.1418331,13.4255952 C78.9697581,13.5126488 77.1995648,12.6324405 76.5201933,11.1428571 C76.3479583,10.765625 76.3096838,10.5141369 76.3096838,9.67261905 C76.3096838,8.52157738 76.4149386,8.26041667 77.1995648,7.42857143 C78.0033282,6.57738095 79.4481887,6.17113095 80.921755,6.36458333 C81.8403418,6.49032738 82.280498,6.67410714 82.7684972,7.11904762 C83.0364183,7.3608631 83.1608103,7.42857143 83.1895161,7.34151786 C83.218222,7.2641369 83.2852023,7.04166667 83.3426139,6.84821429 L83.4574373,6.48065476 L84.3568868,6.48065476 L85.265905,6.48065476 L85.2371992,10.233631 C85.2084933,13.8511905 85.1989247,13.9962798 84.9979839,14.5089286 C84.5578277,15.6019345 83.7253584,16.4047619 82.5962622,16.8303571 C82.0604199,17.0431548 80.500736,17.1688988 79.8979135,17.0625 Z M82.5579877,11.2299107 L83.0555556,11.0074405 L83.0555556,10.1659226 C83.0555556,9.41145833 83.0364183,9.2953869 82.8450461,9.12127976 C81.8977535,8.24107143 79.4864631,8.22172619 78.7209741,9.07291667 C78.2712494,9.56622024 78.3573669,10.3497024 78.9027778,10.8720238 C79.5917179,11.5200893 81.4767345,11.703869 82.5579877,11.2299107 Z" id="Shape"></path>
                        <path d="M45.0490271,16.8787202 C43.6902842,16.530506 42.6185996,15.6793155 41.9870712,14.4605655 C41.5182092,13.5513393 41.3364055,12.7775298 41.3364055,11.703869 C41.3364055,8.79241071 43.0683244,6.67410714 45.6901242,6.39360119 C46.5321621,6.296875 47.6899642,6.42261905 48.3501984,6.67410714 C48.6181196,6.78050595 48.8860407,6.86755952 48.9338838,6.86755952 C49.0869816,6.86755952 48.9243152,5.66815476 48.7042371,5.14583333 C48.5702765,4.83630952 48.3214926,4.48809524 48.06314,4.25595238 C46.8957693,3.22098214 44.8576549,3.36607143 43.125736,4.60416667 C42.8769521,4.78794643 42.6377368,4.93303571 42.5994624,4.93303571 C42.5516193,4.93303571 42.3793843,4.76860119 42.2167179,4.55580357 L41.9200909,4.17857143 L42.1306004,3.98511905 C42.9343638,3.24032738 44.4653418,2.58258929 45.6614183,2.45684524 C47.3263569,2.29241071 49.0391385,3.11458333 49.6802355,4.38169643 C50.1012545,5.22321429 50.1395289,5.7358631 50.1395289,11.2879464 C50.1395289,16.1919643 50.1299603,16.530506 49.9768625,16.578869 C48.7520801,16.9657738 46.015457,17.1302083 45.0490271,16.8787202 Z M48.3501984,15.84375 L48.9912954,15.7470238 L48.9912954,11.8489583 L48.9912954,7.95089286 L48.2066692,7.73809524 C47.125416,7.43824405 46.0250256,7.38020833 45.3073797,7.59300595 C43.2405594,8.19270833 42.015777,10.4754464 42.5229135,12.7775298 C42.9247952,14.6056548 44.2644009,15.8244048 46.0250256,15.9888393 C46.5034562,16.0275298 47.5847094,15.969494 48.3501984,15.84375 Z" id="Shape"></path>
                    </g>
                </g>
            </g>
        </g>
    </g>
</svg>