<?xml version="1.0" encoding="UTF-8"?>
<svg width="57px" height="30px" viewBox="0 0 57 30" version="1.1" xmlns="http://www.w3.org/2000/svg" xmlns:xlink="http://www.w3.org/1999/xlink">
    <!-- Generator: Sketch 63.1 (92452) - https://sketch.com -->
    <title>logo-cisco</title>
    <desc>Created with Sketch.</desc>
    <g id="Page-1" stroke="none" stroke-width="1" fill="none" fill-rule="evenodd">
        <g id="Layout-fixed" transform="translate(-776.000000, -2351.000000)" fill="#A4ADB3" fill-rule="nonzero">
            <g id="section--logos" transform="translate(260.000000, 2351.000000)">
                <g id="logo-cisco" transform="translate(516.000000, 0.000000)">
                    <polygon id="path268" points="18.5692105 19.9301842 16.0768421 19.9301842 16.0768421 29.8072895 18.5692105 29.8072895"></polygon>
                    <g id="use360" transform="translate(30.752526, 19.736842)">
                        <path d="M7.91336842,3.02360526 C7.81310526,2.9715 7.01178947,2.49623684 5.81968421,2.49623684 C4.20521053,2.49623684 3.08810526,3.61807895 3.08810526,5.13071053 C3.08810526,6.59834211 4.15863158,7.76755263 5.81968421,7.76755263 C6.99126316,7.76755263 7.806,7.30255263 7.91336842,7.24334211 L7.91336842,9.89439474 C7.60389474,9.98202632 6.75363158,10.2457105 5.64047368,10.2457105 C2.83863158,10.2457105 0.381,8.31307895 0.381,5.13071053 C0.381,2.18123684 2.60731579,0.0180789474 5.64047368,0.0180789474 C6.81363158,0.0180789474 7.67889474,0.303078947 7.91336842,0.372552632 L7.91336842,3.02360526 Z" id="path284"></path>
                    </g>
                    <path d="M12.6502105,22.7604474 C12.5499474,22.7083421 11.7486316,22.2330789 10.5565263,22.2330789 C8.94205263,22.2330789 7.82494737,23.3549211 7.82494737,24.8675526 C7.82494737,26.3351842 8.89547368,27.5043947 10.5565263,27.5043947 C11.7281053,27.5043947 12.5428421,27.0393947 12.6502105,26.9801842 L12.6502105,29.6312368 C12.3407368,29.7188684 11.4904737,29.9825526 10.3773158,29.9825526 C7.57547368,29.9825526 5.11784211,28.0499211 5.11784211,24.8675526 C5.11784211,21.9180789 7.34415789,19.7549211 10.3773158,19.7549211 C11.5504737,19.7549211 12.4157368,20.0399211 12.6502105,20.1093947 L12.6502105,22.7604474 Z" id="path284"></path>
                    <path d="M46.5066316,22.2701053 C45.0279474,22.2701053 43.9297895,23.4337895 43.9297895,24.8674737 C43.9297895,26.3043158 45.0279474,27.4672105 46.5066316,27.4672105 C47.9837368,27.4672105 49.0850526,26.3043158 49.0850526,24.8674737 C49.0850526,23.4337895 47.9837368,22.2701053 46.5066316,22.2701053 M51.7258421,24.8674737 C51.7258421,27.693 49.5445263,29.9824737 46.5066316,29.9824737 C43.4687368,29.9824737 41.2905789,27.693 41.2905789,24.8674737 C41.2905789,22.0466842 43.4687368,19.7548421 46.5066316,19.7548421 C49.5445263,19.7548421 51.7258421,22.0466842 51.7258421,24.8674737" id="path288"></path>
                    <path d="M28.0211053,22.1752895 C27.984,22.1634474 26.9347895,21.8737105 26.0726842,21.8737105 C25.074,21.8737105 24.5308421,22.2084474 24.5308421,22.6829211 C24.5308421,23.2845 25.2634737,23.4945 25.6732105,23.6239737 L26.3608421,23.8426579 C27.9784737,24.3573947 28.7158421,25.4650263 28.7158421,26.6681842 C28.7158421,29.1495 26.5337368,29.9831842 24.6263684,29.9831842 C23.3008421,29.9831842 22.059,29.7392368 21.9366316,29.7131842 L21.9366316,27.4402895 C22.1561053,27.4955526 23.2013684,27.8073947 24.2900526,27.8073947 C25.5303158,27.8073947 26.1003158,27.4450263 26.1003158,26.8852895 C26.1003158,26.3847632 25.6068947,26.0958158 24.9887368,25.9016053 C24.8379474,25.8510789 24.6113684,25.7800263 24.4566316,25.7295 C23.0687368,25.2905526 21.9113684,24.4750263 21.9113684,22.8400263 C21.9113684,20.9926579 23.2945263,19.7523947 25.5918947,19.7523947 C26.8053158,19.7523947 27.9468947,20.0468684 28.0211053,20.0666053 L28.0211053,22.1752895 Z" id="path292"></path>
                    <g id="g383">
                        <path d="M2.475,9.31547368 C2.475,8.63494737 1.91921053,8.08310526 1.23789474,8.08310526 C0.556578947,8.08310526 -1.75298372e-16,8.63494737 -1.75298372e-16,9.31547368 L-1.75298372e-16,11.9081053 C-1.75298372e-16,12.5925789 0.556578947,13.1452105 1.23789474,13.1452105 C1.91921053,13.1452105 2.475,12.5925789 2.475,11.9081053 L2.475,9.31547368 Z" id="path296"></path>
                        <path d="M9.27181579,5.91244737 C9.27181579,5.23192105 8.71602632,4.6785 8.03471053,4.6785 C7.35260526,4.6785 6.79681579,5.23192105 6.79681579,5.91244737 L6.79681579,11.9085 C6.79681579,12.5929737 7.35260526,13.1448158 8.03471053,13.1448158 C8.71602632,13.1448158 9.27181579,12.5929737 9.27181579,11.9085 L9.27181579,5.91244737 Z" id="path300"></path>
                        <path d="M16.0687105,1.25652632 C16.0687105,0.576 15.5129211,0.0233684211 14.8316053,0.0233684211 C14.1495,0.0233684211 13.5937105,0.576 13.5937105,1.25652632 L13.5937105,14.3720526 C13.5937105,15.0565263 14.1495,15.6091579 14.8316053,15.6091579 C15.5129211,15.6091579 16.0687105,15.0565263 16.0687105,14.3720526 L16.0687105,1.25652632 Z" id="path304"></path>
                        <path d="M22.8656053,5.91244737 C22.8656053,5.23192105 22.3098158,4.6785 21.6285,4.6785 C20.9463947,4.6785 20.3906053,5.23192105 20.3906053,5.91244737 L20.3906053,11.9085 C20.3906053,12.5929737 20.9463947,13.1448158 21.6285,13.1448158 C22.3098158,13.1448158 22.8656053,12.5929737 22.8656053,11.9085 L22.8656053,5.91244737 Z" id="path308"></path>
                        <path d="M29.6547632,9.31547368 C29.6547632,8.63494737 29.1029211,8.08310526 28.4247632,8.08310526 C27.7434474,8.08310526 27.1876579,8.63494737 27.1876579,9.31547368 L27.1876579,11.9081053 C27.1876579,12.5925789 27.7434474,13.1452105 28.4247632,13.1452105 C29.1029211,13.1452105 29.6547632,12.5925789 29.6547632,11.9081053 L29.6547632,9.31547368 Z" id="path312"></path>
                    </g>
                    <g id="use385" transform="translate(27.182921, 0.000000)">
                        <g id="g383">
                            <path d="M2.475,9.31547368 C2.475,8.63494737 1.91921053,8.08310526 1.23789474,8.08310526 C0.556578947,8.08310526 -1.75298372e-16,8.63494737 -1.75298372e-16,9.31547368 L-1.75298372e-16,11.9081053 C-1.75298372e-16,12.5925789 0.556578947,13.1452105 1.23789474,13.1452105 C1.91921053,13.1452105 2.475,12.5925789 2.475,11.9081053 L2.475,9.31547368 Z" id="path296"></path>
                            <path d="M9.27181579,5.91244737 C9.27181579,5.23192105 8.71602632,4.6785 8.03471053,4.6785 C7.35260526,4.6785 6.79681579,5.23192105 6.79681579,5.91244737 L6.79681579,11.9085 C6.79681579,12.5929737 7.35260526,13.1448158 8.03471053,13.1448158 C8.71602632,13.1448158 9.27181579,12.5929737 9.27181579,11.9085 L9.27181579,5.91244737 Z" id="path300"></path>
                            <path d="M16.0687105,1.25652632 C16.0687105,0.576 15.5129211,0.0233684211 14.8316053,0.0233684211 C14.1495,0.0233684211 13.5937105,0.576 13.5937105,1.25652632 L13.5937105,14.3720526 C13.5937105,15.0565263 14.1495,15.6091579 14.8316053,15.6091579 C15.5129211,15.6091579 16.0687105,15.0565263 16.0687105,14.3720526 L16.0687105,1.25652632 Z" id="path304"></path>
                            <path d="M22.8656053,5.91244737 C22.8656053,5.23192105 22.3098158,4.6785 21.6285,4.6785 C20.9463947,4.6785 20.3906053,5.23192105 20.3906053,5.91244737 L20.3906053,11.9085 C20.3906053,12.5929737 20.9463947,13.1448158 21.6285,13.1448158 C22.3098158,13.1448158 22.8656053,12.5929737 22.8656053,11.9085 L22.8656053,5.91244737 Z" id="path308"></path>
                            <path d="M29.6547632,9.31547368 C29.6547632,8.63494737 29.1029211,8.08310526 28.4247632,8.08310526 C27.7434474,8.08310526 27.1876579,8.63494737 27.1876579,9.31547368 L27.1876579,11.9081053 C27.1876579,12.5925789 27.7434474,13.1452105 28.4247632,13.1452105 C29.1029211,13.1452105 29.6547632,12.5925789 29.6547632,11.9081053 L29.6547632,9.31547368 Z" id="path312"></path>
                        </g>
                    </g>
                    <polygon id="path332" points="55.416 28.5064737 55.416 28.6612105 54.9754737 28.6612105 54.9754737 29.8067368 54.7946842 29.8067368 54.7946842 28.6612105 54.3517895 28.6612105 54.3517895 28.5064737"></polygon>
                    <polygon id="path336" points="55.5084474 28.5064737 55.7918684 28.5064737 56.1810789 29.5730526 56.1873947 29.5730526 56.5639737 28.5064737 56.8418684 28.5064737 56.8418684 29.8067368 56.6563421 29.8067368 56.6563421 28.7409474 56.6500263 28.7409474 56.2552895 29.8067368 56.0839737 29.8067368 55.6987105 28.7409474 55.6900263 28.7409474 55.6900263 29.8067368 55.5084474 29.8067368"></polygon>
                </g>
            </g>
        </g>
    </g>
</svg>