<?xml version="1.0" encoding="UTF-8"?>
<svg width="82px" height="22px" viewBox="0 0 82 22" version="1.1" xmlns="http://www.w3.org/2000/svg" xmlns:xlink="http://www.w3.org/1999/xlink">
    <!-- Generator: Sketch 63.1 (92452) - https://sketch.com -->
    <title>logo-netflix</title>
    <desc>Created with Sketch.</desc>
    <g id="Page-1" stroke="none" stroke-width="1" fill="none" fill-rule="evenodd">
        <g id="Layout-fixed" transform="translate(-596.000000, -2355.000000)" fill="#A4ADB3" fill-rule="nonzero">
            <g id="section--logos" transform="translate(260.000000, 2351.000000)">
                <g id="logo-netflix" transform="translate(336.000000, 4.000000)">
                    <path d="M11.2179473,20.5819427 C9.99069181,20.7969806 8.74184538,20.8614522 7.44997648,21.0331645 L3.50959709,9.51763014 L3.50959709,21.5273937 C2.28234155,21.6562575 1.16272184,21.8281287 0,22 L0,3.55271368e-15 L3.27289388,3.55271368e-15 L7.75137272,12.4826084 L7.75137272,3.55271368e-15 L11.2179473,3.55271368e-15 L11.2179473,20.5819427 Z M18.0004383,8.05664482 C19.335489,8.05664482 21.380968,7.99217322 22.6082236,7.99217322 L22.6082236,11.4295987 C21.0794124,11.4295987 19.2923869,11.4295987 18.0004383,11.4940703 L18.0004383,16.6074394 C20.0244858,16.4785757 22.0484535,16.3065454 24.0938529,16.2420738 L24.0938529,19.5504766 L14.5552952,20.3025923 L14.5552952,5.32907052e-15 L24.0938529,5.32907052e-15 L24.0938529,3.43750497 L18.0004383,3.43750497 L18.0004383,8.05664482 Z M36.905145,3.43758446 L33.3309346,3.43758446 L33.3309346,19.2500596 C32.1682127,19.2500596 31.0054909,19.2500596 29.8860305,19.2929082 L29.8860305,3.43758446 L26.3118201,3.43758446 L26.3118201,0 L36.9053044,0 L36.905145,3.43758446 L36.905145,3.43758446 Z M42.5033232,7.82038144 L47.218824,7.82038144 L47.218824,11.2578069 L42.5033232,11.2578069 L42.5033232,19.0567243 L39.1226342,19.0567243 L39.1226342,5.32907052e-15 L48.7475554,5.32907052e-15 L48.7475554,3.43750497 L42.5033232,3.43750497 L42.5033232,7.82038144 Z M54.3457336,16.048818 C56.3051677,16.0916666 58.2859537,16.2423123 60.2023653,16.349553 L60.2023653,19.7441299 C57.1233912,19.5506356 54.0443374,19.3575388 50.9007499,19.2929082 L50.9007499,3.55271368e-15 L54.3457336,3.55271368e-15 L54.3457336,16.048818 Z M63.1090903,19.9804728 C64.2071987,20.0450239 65.3699206,20.1094955 66.4895403,20.2382002 L66.4895403,0 L63.1090903,0 L63.1090903,19.9804728 Z M81.5833333,3.55271368e-15 L77.212331,10.4629221 L81.5833333,22 C80.2913051,21.8281287 78.9994362,21.5917859 77.7074876,21.376907 L75.2314653,15.0176699 L72.7125002,20.8614522 C71.4634148,20.6464143 70.2576705,20.5819427 69.0090631,20.4100715 L73.4445194,10.3338994 L69.4395267,3.55271368e-15 L73.1428045,3.55271368e-15 L75.4036348,5.77931069 L77.8152828,3.55271368e-15 L81.5833333,3.55271368e-15 Z" id="Shape"></path>
                </g>
            </g>
        </g>
    </g>
</svg>