<svg width="32" height="32" viewBox="0 0 32 32" fill="none" xmlns="http://www.w3.org/2000/svg">
<path opacity="0.5" d="M18.3714 31.4514L31.3714 26.2514C31.751 26.0996 32 25.7319 32 25.323V9.47703C32 8.76957 31.2855 8.28581 30.6286 8.54856L17.6286 13.7486C17.249 13.9004 17 14.2681 17 14.677V30.523C17 31.2304 17.7145 31.7142 18.3714 31.4514Z" fill="#C4C4C4"/>
<path opacity="0.5" d="M1.37139 8.54856L14.3714 13.7486C14.751 13.9004 15 14.2681 15 14.677V30.523C15 31.2304 14.2855 31.7142 13.6286 31.4514L0.62861 26.2514C0.248951 26.0996 0 25.7319 0 25.323V9.47703C0 8.76957 0.714527 8.28581 1.37139 8.54856Z" fill="#C4C4C4"/>
<path opacity="0.5" d="M14.4945 11.8884L1.18613 6.48186C0.764269 6.31048 0.772405 5.71035 1.19876 5.55047L14.5955 0.526685C15.501 0.187107 16.499 0.187107 17.4045 0.526685L30.8012 5.55047C31.2276 5.71035 31.2357 6.31048 30.8139 6.48187L17.5055 11.8884C16.5401 12.2806 15.4599 12.2806 14.4945 11.8884Z" fill="#C4C4C4"/>
</svg>
