<?xml version="1.0" encoding="UTF-8"?>
<svg width="28px" height="28px" viewBox="0 0 28 28" version="1.1" xmlns="http://www.w3.org/2000/svg" xmlns:xlink="http://www.w3.org/1999/xlink">
    <!-- Generator: Sketch 63.1 (92452) - https://sketch.com -->
    <title>logo-designer-hero-28x</title>
    <desc>Created with Sketch.</desc>
    <defs>
        <linearGradient x1="50%" y1="100%" x2="50%" y2="3.061617e-15%" id="linearGradient-1">
            <stop stop-color="#FFFFFF" offset="0%"></stop>
            <stop stop-color="#4000BF" offset="100%"></stop>
        </linearGradient>
        <rect id="path-2" x="0" y="0" width="28" height="28" rx="4"></rect>
        <linearGradient x1="50%" y1="100%" x2="50%" y2="3.061617e-15%" id="linearGradient-3">
            <stop stop-color="#7400E1" offset="0%"></stop>
            <stop stop-color="#4000BF" offset="100%"></stop>
        </linearGradient>
    </defs>
    <g id="Page-1" stroke="none" stroke-width="1" fill="none" fill-rule="evenodd">
        <g id="Layout-fixed" transform="translate(-361.000000, -568.000000)">
            <g id="app-name" transform="translate(361.000000, 565.000000)">
                <g id="logo-designer-hero-28x" transform="translate(0.000000, 3.000000)">
                    <g id="bg">
                        <use fill="url(#linearGradient-1)" xlink:href="#path-2"></use>
                        <rect stroke="#FFFFFF" stroke-width="1" stroke-linejoin="square" fill="#FFFFFF" x="0.5" y="0.5" width="27" height="27" rx="4"></rect>
                    </g>
                    <path d="M20.4285714,20.4285714 C20.2366935,20.4285714 20.4285714,20.6204494 20.4285714,20.4285714 L20.4285714,23 C20.4285714,22.808122 20.2366935,23 20.4285714,23 L12.7142857,23 C12.9061637,23 12.7142857,22.808122 12.7142857,23 L12.7142857,20.4285714 C12.7142857,20.6204494 12.9061637,20.4285714 12.7142857,20.4285714 L20.4285714,20.4285714 Z M10.1428571,5 C10.0469182,5 10.1428571,5.09593898 10.1428571,5 L10.1428571,7.57142857 C10.1428571,7.47548959 10.0469182,7.57142857 10.1428571,7.57142857 L8.85714286,7.57142857 L8.85714286,20.4285714 L10.1428571,20.4285714 C10.0469182,20.4285714 10.1428571,20.5245104 10.1428571,20.4285714 L10.1428571,23 C10.1428571,22.904061 10.0469182,23 10.1428571,23 L5,23 C5.09593898,23 5,22.904061 5,23 L5,20.4285714 C5,20.5245104 5.09593898,20.4285714 5,20.4285714 L6.28571429,20.4285714 L6.28571429,7.57142857 L5,7.57142857 C5.09593898,7.57142857 5,7.47548959 5,7.57142857 L5,5 C5,5.09593898 5.09593898,5 5,5 L10.1428571,5 Z M24.2857143,15.2857143 C24.0938363,15.2857143 24.2857143,15.4775923 24.2857143,15.2857143 L24.2857143,17.8571429 C24.2857143,17.6652649 24.0938363,17.8571429 24.2857143,17.8571429 L17.8571429,17.8571429 C18.0490208,17.8571429 17.8571429,17.6652649 17.8571429,17.8571429 L17.8571429,15.2857143 C17.8571429,15.4775923 18.0490208,15.2857143 17.8571429,15.2857143 L24.2857143,15.2857143 Z M24.2857143,10.1428571 C24.0938363,10.1428571 24.2857143,10.3347351 24.2857143,10.1428571 L24.2857143,12.7142857 C24.2857143,12.5224077 24.0938363,12.7142857 24.2857143,12.7142857 L17.8571429,12.7142857 C18.0490208,12.7142857 17.8571429,12.5224077 17.8571429,12.7142857 L17.8571429,10.1428571 C17.8571429,10.3347351 18.0490208,10.1428571 17.8571429,10.1428571 L24.2857143,10.1428571 Z M20.4285714,5 C20.2366935,5 20.4285714,5.19187796 20.4285714,5 L20.4285714,7.57142857 C20.4285714,7.37955061 20.2366935,7.57142857 20.4285714,7.57142857 L12.7142857,7.57142857 C12.9061637,7.57142857 12.7142857,7.37955061 12.7142857,7.57142857 L12.7142857,5 C12.7142857,5.19187796 12.9061637,5 12.7142857,5 L20.4285714,5 Z" id="isotype" fill="url(#linearGradient-3)"></path>
                </g>
            </g>
        </g>
    </g>
</svg>