<?xml version="1.0" encoding="UTF-8"?>
<svg width="48px" height="48px" viewBox="0 0 48 48" version="1.1" xmlns="http://www.w3.org/2000/svg" xmlns:xlink="http://www.w3.org/1999/xlink">
    <!-- Generator: Sketch 63.1 (92452) - https://sketch.com -->
    <title>logo-designer-download</title>
    <desc>Created with Sketch.</desc>
    <defs>
        <linearGradient x1="0%" y1="0%" x2="100%" y2="100%" id="linearGradient-1">
            <stop stop-color="#FFFFFF" stop-opacity="0" offset="0%"></stop>
            <stop stop-color="#5500FF" stop-opacity="0.15" offset="100%"></stop>
        </linearGradient>
        <rect id="path-2" x="0" y="0" width="48" height="48" rx="4"></rect>
        <linearGradient x1="50%" y1="100%" x2="50%" y2="3.061617e-15%" id="linearGradient-3">
            <stop stop-color="#7400E1" offset="0%"></stop>
            <stop stop-color="#4000BF" offset="100%"></stop>
        </linearGradient>
    </defs>
    <g id="Page-1" stroke="none" stroke-width="1" fill="none" fill-rule="evenodd">
        <g id="Layout-fixed" transform="translate(-456.000000, -2675.000000)">
            <g id="block--open-source" transform="translate(-1.000000, 2462.000000)">
                <g id="Group">
                    <g transform="translate(396.000000, 213.000000)">
                        <g id="logo-designer-download" transform="translate(61.000000, 0.000000)">
                            <g id="bg">
                                <use fill="#FFFFFF" xlink:href="#path-2"></use>
                                <rect stroke-opacity="0.55" stroke="#FFFFFF" stroke-width="2" stroke-linejoin="square" fill="url(#linearGradient-1)" x="1" y="1" width="46" height="46" rx="4"></rect>
                            </g>
                            <path d="M32.3333333,34 C32.7015232,34 33,34.2984768 33,34.6666667 L33,37.3333333 C33,37.7015232 32.7015232,38 32.3333333,38 L21.6666667,38 C21.2984768,38 21,37.7015232 21,37.3333333 L21,34.6666667 C21,34.2984768 21.2984768,34 21.6666667,34 L32.3333333,34 Z M16.6666667,10 C16.8507616,10 17,10.1492384 17,10.3333333 L17,13.6666667 C17,13.8507616 16.8507616,14 16.6666667,14 L15,14 L15,34 L16.6666667,34 C16.8507616,34 17,34.1492384 17,34.3333333 L17,37.6666667 C17,37.8507616 16.8507616,38 16.6666667,38 L9.33333333,38 C9.14923842,38 9,37.8507616 9,37.6666667 L9,34.3333333 C9,34.1492384 9.14923842,34 9.33333333,34 L11,34 L11,14 L9.33333333,14 C9.14923842,14 9,13.8507616 9,13.6666667 L9,10.3333333 C9,10.1492384 9.14923842,10 9.33333333,10 L16.6666667,10 Z M38.3333333,26 C38.7015232,26 39,26.2984768 39,26.6666667 L39,29.3333333 C39,29.7015232 38.7015232,30 38.3333333,30 L29.6666667,30 C29.2984768,30 29,29.7015232 29,29.3333333 L29,26.6666667 C29,26.2984768 29.2984768,26 29.6666667,26 L38.3333333,26 Z M38.3333333,18 C38.7015232,18 39,18.2984768 39,18.6666667 L39,21.3333333 C39,21.7015232 38.7015232,22 38.3333333,22 L29.6666667,22 C29.2984768,22 29,21.7015232 29,21.3333333 L29,18.6666667 C29,18.2984768 29.2984768,18 29.6666667,18 L38.3333333,18 Z M32.3333333,10 C32.7015232,10 33,10.2984768 33,10.6666667 L33,13.3333333 C33,13.7015232 32.7015232,14 32.3333333,14 L21.6666667,14 C21.2984768,14 21,13.7015232 21,13.3333333 L21,10.6666667 C21,10.2984768 21.2984768,10 21.6666667,10 L32.3333333,10 Z" id="isotype" fill="url(#linearGradient-3)"></path>
                        </g>
                    </g>
                </g>
            </g>
        </g>
    </g>
</svg>