<svg width="32" height="32" viewBox="0 0 32 32" fill="none" xmlns="http://www.w3.org/2000/svg">
<path d="M15.9999 31.1864C24.3872 31.1864 31.1864 24.3872 31.1864 16C31.1864 7.61276 24.3872 0.813559 15.9999 0.813559C7.61268 0.813559 0.813477 7.61276 0.813477 16C0.813477 24.3872 7.61268 31.1864 15.9999 31.1864Z" fill="white"/>
<path d="M16 0C7.16344 0 0 7.16344 0 16C0 24.8366 7.16344 32 16 32C24.8366 32 32 24.8366 32 16C32 7.16344 24.8366 0 16 0ZM16 1.62712C23.9379 1.62712 30.3729 8.06208 30.3729 16C30.3729 23.9379 23.9379 30.3729 16 30.3729C8.06208 30.3729 1.62712 23.9379 1.62712 16C1.62712 8.06208 8.06208 1.62712 16 1.62712Z" fill="#4000BF"/>
<path fill-rule="evenodd" clip-rule="evenodd" d="M16.1808 4.61017C22.4713 4.61017 27.5707 9.70957 27.5707 16C27.5707 22.2904 22.4713 27.3898 16.1808 27.3898C9.89042 27.3898 4.79102 22.2904 4.79102 16C4.79102 14.4627 5.09559 12.9965 5.6477 11.6584C6.45385 12.7562 7.7539 13.4689 9.22039 13.4689C11.6667 13.4689 13.6498 11.4858 13.6498 9.03955C13.6498 7.57305 12.9371 6.27301 11.8392 5.46687C13.1773 4.91475 14.6435 4.61017 16.1808 4.61017Z" fill="url(#paint0_linear)"/>
<defs>
<linearGradient id="paint0_linear" x1="16.1808" y1="27.3898" x2="16.1808" y2="4.61017" gradientUnits="userSpaceOnUse">
<stop stop-color="#7400E1"/>
<stop offset="1" stop-color="#4000BF"/>
</linearGradient>
</defs>
</svg>
