<?xml version="1.0" encoding="UTF-8"?>
<svg width="242px" height="162px" viewBox="0 0 242 162" version="1.1" xmlns="http://www.w3.org/2000/svg" xmlns:xlink="http://www.w3.org/1999/xlink">
    <!-- Generator: Sketch 63.1 (92452) - https://sketch.com -->
    <title>insomnia-client</title>
    <desc>Created with Sketch.</desc>
    <g id="Page-1" stroke="none" stroke-width="1" fill="none" fill-rule="evenodd">
        <g id="insomnia-client">
            <polygon id="bg-illustration" fill-opacity="0.15" fill="#000000" points="2 2 47 2 47 160 2 160"></polygon>
            <polygon id="bg-illustration" fill-opacity="0.15" fill="#000000" points="145 2 240 2 240 160 145 160"></polygon>
            <polygon id="bg-illustration" fill-opacity="0.15" fill="#000000" points="51 2 143 2 143 160 49 160"></polygon>
            <path d="M238,0 C240.209139,0 242,1.790861 242,4 L242,158 C242,160.209139 240.209139,162 238,162 L4,162 C1.790861,162 0,160.209139 0,158 L0,4 C0,1.790861 1.790861,0 4,0 L238,0 Z M238,2 L4,2 C2.9456382,2 2.08183488,2.81587779 2.00548574,3.85073766 L2,4 L2,158 C2,159.054362 2.81587779,159.918165 3.85073766,159.994514 L4,160 L238,160 C239.054362,160 239.918165,159.184122 239.994514,158.149262 L240,158 L240,4 C240,2.9456382 239.184122,2.08183488 238.149262,2.00548574 L238,2 Z" id="Rectangle" fill="#FFFFFF" fill-rule="nonzero"></path>
            <polygon id="Rectangle" fill="#FFFFFF" points="47 2 49 2 49 160 47 160"></polygon>
            <polygon id="Rectangle" fill="#FFFFFF" points="143 2 145 2 145 160 143 160"></polygon>
            <polygon id="Rectangle" fill="#FFFFFF" points="51 18 141 18 141 20 51 20"></polygon>
            <polygon id="Rectangle" fill="#FFFFFF" points="147 18 240 18 240 20 147 20"></polygon>
            <g id="Group" transform="translate(7.000000, 28.000000)" fill="#FFFFFF">
                <rect id="Rectangle" x="0" y="0" width="24" height="4"></rect>
                <rect id="Rectangle" x="0" y="52" width="24" height="4"></rect>
                <path d="M34,8 L34,10 L10,10 L10,8 L34,8 Z M6,8 L6,10 L0,10 L0,8 L6,8 Z" id="Combined-Shape" fill-opacity="0.6"></path>
                <path d="M34,60 L34,62 L10,62 L10,60 L34,60 Z M6,60 L6,62 L0,62 L0,60 L6,60 Z" id="Combined-Shape" fill-opacity="0.6"></path>
                <path d="M28,14 L28,16 L10,16 L10,14 L28,14 Z M6,14 L6,16 L0,16 L0,14 L6,14 Z" id="Combined-Shape" fill-opacity="0.6"></path>
                <path d="M28,66 L28,68 L10,68 L10,66 L28,66 Z M6,66 L6,68 L0,68 L0,66 L6,66 Z" id="Combined-Shape" fill-opacity="0.6"></path>
                <path d="M28,26 L28,28 L10,28 L10,26 L28,26 Z M6,26 L6,28 L0,28 L0,26 L6,26 Z" id="Combined-Shape" fill-opacity="0.6"></path>
                <path d="M28,78 L28,80 L10,80 L10,78 L28,78 Z M6,78 L6,80 L0,80 L0,78 L6,78 Z" id="Combined-Shape" fill-opacity="0.6"></path>
                <path d="M34,20 L34,22 L10,22 L10,20 L34,20 Z M6,20 L6,22 L0,22 L0,20 L6,20 Z" id="Combined-Shape" fill-opacity="0.6"></path>
                <path d="M34,72 L34,74 L10,74 L10,72 L34,72 Z M6,72 L6,74 L0,74 L0,72 L6,72 Z" id="Combined-Shape" fill-opacity="0.6"></path>
                <path d="M34,32 L34,34 L10,34 L10,32 L34,32 Z M6,32 L6,34 L0,34 L0,32 L6,32 Z" id="Combined-Shape" fill-opacity="0.6"></path>
                <path d="M34,84 L34,86 L10,86 L10,84 L34,84 Z M6,84 L6,86 L0,86 L0,84 L6,84 Z" id="Combined-Shape" fill-opacity="0.6"></path>
                <path d="M28,38 L28,40 L10,40 L10,38 L28,38 Z M6,38 L6,40 L0,40 L0,38 L6,38 Z" id="Combined-Shape" fill-opacity="0.6"></path>
                <path d="M28,90 L28,92 L10,92 L10,90 L28,90 Z M6,90 L6,92 L0,92 L0,90 L6,90 Z" id="Combined-Shape" fill-opacity="0.6"></path>
                <path d="M34,44 L34,46 L10,46 L10,44 L34,44 Z M6,44 L6,46 L0,46 L0,44 L6,44 Z" id="Combined-Shape" fill-opacity="0.6"></path>
                <path d="M34,96 L34,98 L10,98 L10,96 L34,96 Z M6,96 L6,98 L0,98 L0,96 L6,96 Z" id="Combined-Shape" fill-opacity="0.6"></path>
            </g>
            <rect id="Rectangle" fill="#FFFFFF" x="2" y="18" width="43" height="2"></rect>
            <rect id="Rectangle" fill="#FFFFFF" opacity="0.25" x="2" y="154" width="43" height="2"></rect>
            <polygon id="Rectangle" fill="#FFFFFF" opacity="0.25" points="51 154 141 154 141 156 51 156"></polygon>
            <polygon id="Rectangle" fill="#FFFFFF" opacity="0.25" points="147 154 238 154 238 156 147 156"></polygon>
            <polygon id="Rectangle" fill="#FFFFFF" points="55 8 75 8 75 12 55 12"></polygon>
            <polygon id="Rectangle" fill="#FFFFFF" points="79 8 91 8 91 12 79 12"></polygon>
            <polygon id="Rectangle" fill="#FFFFFF" points="151 8 163 8 163 12 151 12"></polygon>
            <polygon id="Rectangle" fill="#FFFFFF" points="7 8 37 8 37 12 7 12"></polygon>
            <rect id="Rectangle" fill-opacity="0.6" fill="#FFFFFF" x="109" y="9" width="16" height="2"></rect>
            <rect id="Rectangle" fill-opacity="0.6" fill="#FFFFFF" x="167" y="9" width="16" height="2"></rect>
            <polygon id="Rectangle" fill-opacity="0.6" fill="#FFFFFF" points="129 9 137 9 137 11 129 11"></polygon>
            <polygon id="Rectangle" fill-opacity="0.6" fill="#FFFFFF" points="187 9 195 9 195 11 187 11"></polygon>
            <polygon id="Rectangle" fill-opacity="0.6" fill="#FFFFFF" points="228 8 232 8 232 12 228 12"></polygon>
            <path d="M58,76 L58,78 L55,78 L55,76 L58,76 Z M58,70 L58,72 L55,72 L55,70 L58,70 Z M58,64 L58,66 L55,66 L55,64 L58,64 Z M58,58 L58,60 L55,60 L55,58 L58,58 Z M58,52 L58,54 L55,54 L55,52 L58,52 Z M58,46 L58,48 L55,48 L55,46 L58,46 Z M58,40 L58,42 L55,42 L55,40 L58,40 Z M58,34 L58,36 L55,36 L55,34 L58,34 Z M58,28 L58,30 L55,30 L55,28 L58,28 Z" id="Combined-Shape" fill="#FFFFFF" opacity="0.25"></path>
            <path d="M154,100 L154,102 L151,102 L151,100 L154,100 Z M154,94 L154,96 L151,96 L151,94 L154,94 Z M154,88 L154,90 L151,90 L151,88 L154,88 Z M154,82 L154,84 L151,84 L151,82 L154,82 Z M154,76 L154,78 L151,78 L151,76 L154,76 Z M154,70 L154,72 L151,72 L151,70 L154,70 Z M154,64 L154,66 L151,66 L151,64 L154,64 Z M154,46 L154,48 L151,48 L151,46 L154,46 Z M154,40 L154,42 L151,42 L151,40 L154,40 Z M154,34 L154,36 L151,36 L151,34 L154,34 Z M154,28 L154,30 L151,30 L151,28 L154,28 Z" id="Combined-Shape" fill="#FFFFFF" opacity="0.25"></path>
            <path d="M112,34 L112,36 L88,36 L88,34 L112,34 Z M84,34 L84,36 L70,36 L70,34 L84,34 Z" id="Combined-Shape" fill-opacity="0.6" fill="#FFFFFF"></path>
            <path d="M214,34 L214,36 L190,36 L190,34 L214,34 Z M186,34 L186,36 L166,36 L166,34 L186,34 Z" id="Combined-Shape" fill-opacity="0.6" fill="#FFFFFF"></path>
            <rect id="Rectangle" fill-opacity="0.6" fill="#FFFFFF" x="62" y="28" width="4" height="2"></rect>
            <rect id="Rectangle" fill-opacity="0.6" fill="#FFFFFF" x="158" y="28" width="4" height="2"></rect>
            <rect id="Rectangle" fill-opacity="0.6" fill="#FFFFFF" x="62" y="76" width="4" height="2"></rect>
            <rect id="Rectangle" fill-opacity="0.6" fill="#FFFFFF" x="156" y="100" width="4" height="2"></rect>
            <path d="M112,52 L112,54 L88,54 L88,52 L112,52 Z M84,52 L84,54 L70,54 L70,52 L84,52 Z" id="Combined-Shape" fill-opacity="0.6" fill="#FFFFFF"></path>
            <path d="M204,64 L204,66 L180,66 L180,64 L204,64 Z M176,64 L176,66 L166,66 L166,64 L176,64 Z" id="Combined-Shape" fill-opacity="0.6" fill="#FFFFFF"></path>
            <path d="M112,64 L112,66 L102,66 L102,64 L112,64 Z M98,64 L98,66 L70,66 L70,64 L98,64 Z" id="Combined-Shape" fill-opacity="0.6" fill="#FFFFFF"></path>
            <path d="M208,76 L208,78 L198,78 L198,76 L208,76 Z M194,76 L194,78 L166,78 L166,76 L194,76 Z" id="Combined-Shape" fill-opacity="0.6" fill="#FFFFFF"></path>
            <path d="M208,88 L208,90 L198,90 L198,88 L208,88 Z M194,88 L194,90 L166,90 L166,88 L194,88 Z" id="Combined-Shape" fill-opacity="0.6" fill="#FFFFFF"></path>
            <path d="M105,46 L105,48 L86,48 L86,46 L105,46 Z M82,46 L82,48 L70,48 L70,46 L82,46 Z" id="Combined-Shape" fill-opacity="0.6" fill="#FFFFFF"></path>
            <path d="M182,46 L234,46 L234,48 L182,48 L182,46 Z M166,52 L234,52 L234,54 L166,54 L166,52 Z M234,58 L234,60 L166,60 L166,58 L234,58 Z M178,46 L178,48 L166,48 L166,46 L178,46 Z" id="Combined-Shape" fill-opacity="0.6" fill="#FFFFFF"></path>
            <path d="M105,70 L105,72 L86,72 L86,70 L105,70 Z M82,70 L82,72 L70,72 L70,70 L82,70 Z" id="Combined-Shape" fill-opacity="0.6" fill="#FFFFFF"></path>
            <path d="M201,82 L201,84 L182,84 L182,82 L201,82 Z M178,82 L178,84 L166,84 L166,82 L178,82 Z" id="Combined-Shape" fill-opacity="0.6" fill="#FFFFFF"></path>
            <path d="M94,40 L94,42 L80,42 L80,40 L94,40 Z M76,40 L76,42 L70,42 L70,40 L76,40 Z" id="Combined-Shape" fill-opacity="0.6" fill="#FFFFFF"></path>
            <path d="M196,40 L196,42 L182,42 L182,40 L196,40 Z M178,40 L178,42 L166,42 L166,40 L178,40 Z" id="Combined-Shape" fill-opacity="0.6" fill="#FFFFFF"></path>
            <path d="M196,94 L196,96 L182,96 L182,94 L196,94 Z M178,94 L178,96 L166,96 L166,94 L178,94 Z" id="Combined-Shape" fill-opacity="0.6" fill="#FFFFFF"></path>
            <path d="M94,58 L94,60 L80,60 L80,58 L94,58 Z M76,58 L76,60 L70,60 L70,58 L76,58 Z" id="Combined-Shape" fill-opacity="0.6" fill="#FFFFFF"></path>
            <path d="M190,70 L190,72 L176,72 L176,70 L190,70 Z M172,70 L172,72 L166,72 L166,70 L172,70 Z" id="Combined-Shape" fill-opacity="0.6" fill="#FFFFFF"></path>
        </g>
    </g>
</svg>